<mxfile host="Electron" agent="Mozilla/5.0 (Macintosh; Intel Mac OS X 10_15_7) AppleWebKit/537.36 (KHTML, like Gecko) draw.io/28.1.2 Chrome/138.0.7204.243 Electron/37.4.0 Safari/537.36" version="28.1.2">
  <diagram name="Page-1" id="IDdGzsCMI2-DNWBRzEll">
    <mxGraphModel dx="1018" dy="777" grid="1" gridSize="10" guides="1" tooltips="1" connect="1" arrows="1" fold="1" page="1" pageScale="1" pageWidth="850" pageHeight="1100" math="0" shadow="0">
      <root>
        <mxCell id="0" />
        <mxCell id="1" parent="0" />
        <mxCell id="LxmmPh7CMpaAkyLT1L6L-12" value="" style="edgeStyle=orthogonalEdgeStyle;rounded=0;orthogonalLoop=1;jettySize=auto;html=1;" edge="1" parent="1" source="LxmmPh7CMpaAkyLT1L6L-2" target="LxmmPh7CMpaAkyLT1L6L-5">
          <mxGeometry relative="1" as="geometry">
            <Array as="points">
              <mxPoint x="620" y="240" />
            </Array>
          </mxGeometry>
        </mxCell>
        <mxCell id="LxmmPh7CMpaAkyLT1L6L-15" value="" style="edgeStyle=orthogonalEdgeStyle;rounded=0;orthogonalLoop=1;jettySize=auto;html=1;" edge="1" parent="1" source="LxmmPh7CMpaAkyLT1L6L-3" target="LxmmPh7CMpaAkyLT1L6L-6">
          <mxGeometry relative="1" as="geometry" />
        </mxCell>
        <mxCell id="LxmmPh7CMpaAkyLT1L6L-3" value="&lt;b&gt;Sentiment Features&lt;/b&gt;" style="rounded=1;whiteSpace=wrap;html=1;fillColor=#ffe6cc;strokeColor=#d79b00;" vertex="1" parent="1">
          <mxGeometry x="60" y="360" width="120" height="60" as="geometry" />
        </mxCell>
        <mxCell id="LxmmPh7CMpaAkyLT1L6L-14" value="" style="edgeStyle=orthogonalEdgeStyle;rounded=0;orthogonalLoop=1;jettySize=auto;html=1;" edge="1" parent="1" source="LxmmPh7CMpaAkyLT1L6L-4" target="LxmmPh7CMpaAkyLT1L6L-2">
          <mxGeometry relative="1" as="geometry" />
        </mxCell>
        <mxCell id="LxmmPh7CMpaAkyLT1L6L-4" value="&lt;b&gt;Market Features&lt;/b&gt;" style="rounded=1;whiteSpace=wrap;html=1;fillColor=#ffe6cc;strokeColor=#d79b00;" vertex="1" parent="1">
          <mxGeometry x="60" y="215" width="120" height="60" as="geometry" />
        </mxCell>
        <mxCell id="LxmmPh7CMpaAkyLT1L6L-11" value="" style="edgeStyle=orthogonalEdgeStyle;rounded=0;orthogonalLoop=1;jettySize=auto;html=1;" edge="1" parent="1" source="LxmmPh7CMpaAkyLT1L6L-5" target="LxmmPh7CMpaAkyLT1L6L-7">
          <mxGeometry relative="1" as="geometry" />
        </mxCell>
        <mxCell id="LxmmPh7CMpaAkyLT1L6L-5" value="&lt;b&gt;Cross Attention Fusion Module&lt;/b&gt;" style="rounded=1;whiteSpace=wrap;html=1;fillColor=#fff2cc;strokeColor=#d6b656;" vertex="1" parent="1">
          <mxGeometry x="510" y="275" width="220" height="155" as="geometry" />
        </mxCell>
        <mxCell id="LxmmPh7CMpaAkyLT1L6L-6" value="&lt;b&gt;Temporal Positional Encoding&lt;/b&gt;" style="rounded=1;whiteSpace=wrap;html=1;fillColor=#dae8fc;strokeColor=#6c8ebf;" vertex="1" parent="1">
          <mxGeometry x="240" y="355" width="140" height="70" as="geometry" />
        </mxCell>
        <mxCell id="LxmmPh7CMpaAkyLT1L6L-10" value="" style="edgeStyle=orthogonalEdgeStyle;rounded=0;orthogonalLoop=1;jettySize=auto;html=1;" edge="1" parent="1" source="LxmmPh7CMpaAkyLT1L6L-7" target="LxmmPh7CMpaAkyLT1L6L-8">
          <mxGeometry relative="1" as="geometry" />
        </mxCell>
        <mxCell id="LxmmPh7CMpaAkyLT1L6L-7" value="&lt;b&gt;Dueling DQN Network&lt;/b&gt;" style="rounded=1;whiteSpace=wrap;html=1;fillColor=#f5f5f5;fontColor=#333333;strokeColor=#666666;" vertex="1" parent="1">
          <mxGeometry x="525" y="500" width="190" height="100" as="geometry" />
        </mxCell>
        <mxCell id="LxmmPh7CMpaAkyLT1L6L-8" value="&lt;b&gt;Q-values&lt;/b&gt;" style="rounded=1;whiteSpace=wrap;html=1;fillColor=#e3c800;fontColor=#000000;strokeColor=#B09500;" vertex="1" parent="1">
          <mxGeometry x="560" y="660" width="120" height="60" as="geometry" />
        </mxCell>
        <mxCell id="LxmmPh7CMpaAkyLT1L6L-13" style="edgeStyle=orthogonalEdgeStyle;rounded=0;orthogonalLoop=1;jettySize=auto;html=1;entryX=0;entryY=0.75;entryDx=0;entryDy=0;" edge="1" parent="1" source="LxmmPh7CMpaAkyLT1L6L-6" target="LxmmPh7CMpaAkyLT1L6L-5">
          <mxGeometry relative="1" as="geometry" />
        </mxCell>
        <mxCell id="LxmmPh7CMpaAkyLT1L6L-2" value="&lt;b&gt;Multi-head Self-Attention&lt;/b&gt;&lt;div&gt;&lt;b&gt;&lt;br&gt;&lt;/b&gt;&lt;/div&gt;&lt;div&gt;&lt;br&gt;&lt;/div&gt;" style="rounded=1;whiteSpace=wrap;html=1;fillColor=#dae8fc;strokeColor=#6c8ebf;" vertex="1" parent="1">
          <mxGeometry x="240" y="190" width="185" height="110" as="geometry" />
        </mxCell>
        <mxCell id="LxmmPh7CMpaAkyLT1L6L-20" value="&lt;font style=&quot;font-size: 9px;&quot;&gt;H1&lt;/font&gt;" style="whiteSpace=wrap;html=1;" vertex="1" parent="1">
          <mxGeometry x="271" y="260" width="25" height="20" as="geometry" />
        </mxCell>
        <mxCell id="LxmmPh7CMpaAkyLT1L6L-21" value="&lt;font style=&quot;font-size: 9px;&quot;&gt;H3&lt;/font&gt;" style="whiteSpace=wrap;html=1;" vertex="1" parent="1">
          <mxGeometry x="336" y="260" width="25" height="20" as="geometry" />
        </mxCell>
        <mxCell id="LxmmPh7CMpaAkyLT1L6L-22" value="&lt;font style=&quot;font-size: 9px;&quot;&gt;H2&lt;/font&gt;" style="whiteSpace=wrap;html=1;" vertex="1" parent="1">
          <mxGeometry x="303.5" y="260" width="25" height="20" as="geometry" />
        </mxCell>
        <mxCell id="LxmmPh7CMpaAkyLT1L6L-23" value="&lt;font style=&quot;font-size: 9px;&quot;&gt;H4&lt;/font&gt;" style="whiteSpace=wrap;html=1;" vertex="1" parent="1">
          <mxGeometry x="366" y="260" width="25" height="20" as="geometry" />
        </mxCell>
        <mxCell id="LxmmPh7CMpaAkyLT1L6L-25" value="&lt;font style=&quot;font-size: 9px;&quot;&gt;Advantage Stream&lt;/font&gt;" style="whiteSpace=wrap;html=1;" vertex="1" parent="1">
          <mxGeometry x="628" y="380" width="80" height="20" as="geometry" />
        </mxCell>
        <mxCell id="LxmmPh7CMpaAkyLT1L6L-26" value="&lt;font style=&quot;font-size: 9px;&quot;&gt;Value Stream&lt;/font&gt;" style="whiteSpace=wrap;html=1;" vertex="1" parent="1">
          <mxGeometry x="529" y="381" width="80" height="20" as="geometry" />
        </mxCell>
        <mxCell id="LxmmPh7CMpaAkyLT1L6L-28" value="&lt;b&gt;&lt;font style=&quot;font-size: 16px;&quot;&gt;MHA-DQN Architecture&lt;/font&gt;&lt;/b&gt;" style="text;html=1;align=center;verticalAlign=middle;whiteSpace=wrap;rounded=0;" vertex="1" parent="1">
          <mxGeometry x="240" y="120" width="340" height="40" as="geometry" />
        </mxCell>
        <mxCell id="LxmmPh7CMpaAkyLT1L6L-29" value="&lt;i&gt;Q(s, a) = V(s) + A(s, a) - (1/ |A|)*&lt;span style=&quot;font-family: Cambria, serif; font-size: 11pt; background-color: transparent; color: light-dark(rgb(0, 0, 0), rgb(255, 255, 255));&quot;&gt;&lt;span style=&quot;font-size: 10pt; line-height: 15.3333px; font-family: Symbol;&quot;&gt;Sum(&lt;/span&gt;&lt;/span&gt;A(s, a&#39;))&amp;nbsp;&lt;/i&gt;" style="rounded=0;whiteSpace=wrap;html=1;fillColor=#f5f5f5;strokeColor=#666666;fontColor=#333333;" vertex="1" parent="1">
          <mxGeometry x="130" y="570" width="250" height="40" as="geometry" />
        </mxCell>
        <mxCell id="LxmmPh7CMpaAkyLT1L6L-31" value="&lt;i&gt;Attention(Q,K,V) = softmax(QK^T/sqrt(d_k))V&lt;/i&gt;" style="rounded=0;whiteSpace=wrap;html=1;fillColor=#fff2cc;strokeColor=#d6b656;" vertex="1" parent="1">
          <mxGeometry x="131" y="520" width="250" height="40" as="geometry" />
        </mxCell>
      </root>
    </mxGraphModel>
  </diagram>
</mxfile>
